<mxfile host="app.diagrams.net" modified="2024-05-20T07:40:06.808Z" agent="Mozilla/5.0 (Macintosh; Intel Mac OS X 10_15_7) AppleWebKit/537.36 (KHTML, like Gecko) Chrome/124.0.0.0 Safari/537.36" etag="TMOVaV7fLNxIkyrVuk_d" version="24.4.4" type="github">
  <diagram name="Page-1" id="DfPS0PrKty-qUpFRbwp3">
    <mxGraphModel dx="954" dy="606" grid="1" gridSize="10" guides="1" tooltips="1" connect="1" arrows="1" fold="1" page="1" pageScale="1" pageWidth="850" pageHeight="1100" math="0" shadow="0">
      <root>
        <mxCell id="0" />
        <mxCell id="1" parent="0" />
        <mxCell id="CjrtVeYOu_jG5Td_RAy8-1" value="Druid" style="rounded=1;whiteSpace=wrap;html=1;" parent="1" vertex="1">
          <mxGeometry x="620" y="410" width="120" height="60" as="geometry" />
        </mxCell>
        <mxCell id="CjrtVeYOu_jG5Td_RAy8-2" value="Starrocks" style="rounded=1;whiteSpace=wrap;html=1;" parent="1" vertex="1">
          <mxGeometry x="610" y="170" width="120" height="60" as="geometry" />
        </mxCell>
        <mxCell id="CjrtVeYOu_jG5Td_RAy8-4" style="edgeStyle=orthogonalEdgeStyle;rounded=0;orthogonalLoop=1;jettySize=auto;html=1;exitX=1;exitY=0.5;exitDx=0;exitDy=0;exitPerimeter=0;entryX=0;entryY=0.5;entryDx=0;entryDy=0;" parent="1" source="CjrtVeYOu_jG5Td_RAy8-3" target="CjrtVeYOu_jG5Td_RAy8-1" edge="1">
          <mxGeometry relative="1" as="geometry" />
        </mxCell>
        <mxCell id="CjrtVeYOu_jG5Td_RAy8-3" value="Kafka" style="shape=cylinder3;whiteSpace=wrap;html=1;boundedLbl=1;backgroundOutline=1;size=15;" parent="1" vertex="1">
          <mxGeometry x="410" y="400" width="60" height="80" as="geometry" />
        </mxCell>
        <mxCell id="CjrtVeYOu_jG5Td_RAy8-5" value="Kafka" style="shape=cylinder3;whiteSpace=wrap;html=1;boundedLbl=1;backgroundOutline=1;size=15;" parent="1" vertex="1">
          <mxGeometry x="410" y="160" width="60" height="80" as="geometry" />
        </mxCell>
        <mxCell id="CjrtVeYOu_jG5Td_RAy8-6" style="edgeStyle=orthogonalEdgeStyle;rounded=0;orthogonalLoop=1;jettySize=auto;html=1;exitX=1;exitY=0.5;exitDx=0;exitDy=0;exitPerimeter=0;entryX=0;entryY=0.5;entryDx=0;entryDy=0;" parent="1" edge="1">
          <mxGeometry relative="1" as="geometry">
            <mxPoint x="470" y="199.5" as="sourcePoint" />
            <mxPoint x="610" y="199.5" as="targetPoint" />
          </mxGeometry>
        </mxCell>
        <mxCell id="CjrtVeYOu_jG5Td_RAy8-7" value="Flink" style="edgeLabel;html=1;align=center;verticalAlign=middle;resizable=0;points=[];" parent="CjrtVeYOu_jG5Td_RAy8-6" vertex="1" connectable="0">
          <mxGeometry x="-0.1286" y="2" relative="1" as="geometry">
            <mxPoint y="1" as="offset" />
          </mxGeometry>
        </mxCell>
        <mxCell id="CjrtVeYOu_jG5Td_RAy8-8" value="Actor" style="shape=umlActor;verticalLabelPosition=bottom;verticalAlign=top;html=1;outlineConnect=0;" parent="1" vertex="1">
          <mxGeometry x="1090" y="280" width="30" height="60" as="geometry" />
        </mxCell>
        <mxCell id="CjrtVeYOu_jG5Td_RAy8-9" value="SR Proxy" style="rounded=1;whiteSpace=wrap;html=1;" parent="1" vertex="1">
          <mxGeometry x="840" y="170" width="120" height="60" as="geometry" />
        </mxCell>
        <mxCell id="CjrtVeYOu_jG5Td_RAy8-10" value="Kong" style="rounded=1;whiteSpace=wrap;html=1;" parent="1" vertex="1">
          <mxGeometry x="850" y="410" width="120" height="60" as="geometry" />
        </mxCell>
        <mxCell id="CjrtVeYOu_jG5Td_RAy8-11" value="SR SQL" style="endArrow=classic;html=1;rounded=0;entryX=1;entryY=0.5;entryDx=0;entryDy=0;exitX=0;exitY=0.3333333333333333;exitDx=0;exitDy=0;exitPerimeter=0;" parent="1" target="CjrtVeYOu_jG5Td_RAy8-9" edge="1" source="CjrtVeYOu_jG5Td_RAy8-8">
          <mxGeometry width="50" height="50" relative="1" as="geometry">
            <mxPoint x="1080" y="250" as="sourcePoint" />
            <mxPoint x="890" y="200" as="targetPoint" />
          </mxGeometry>
        </mxCell>
        <mxCell id="CjrtVeYOu_jG5Td_RAy8-12" value="" style="endArrow=classic;html=1;rounded=0;entryX=1;entryY=0.5;entryDx=0;entryDy=0;" parent="1" target="CjrtVeYOu_jG5Td_RAy8-10" edge="1" source="CjrtVeYOu_jG5Td_RAy8-8">
          <mxGeometry width="50" height="50" relative="1" as="geometry">
            <mxPoint x="1080" y="260" as="sourcePoint" />
            <mxPoint x="970" y="210" as="targetPoint" />
          </mxGeometry>
        </mxCell>
        <mxCell id="CjrtVeYOu_jG5Td_RAy8-20" value="Druid SQL" style="edgeLabel;html=1;align=center;verticalAlign=middle;resizable=0;points=[];" parent="CjrtVeYOu_jG5Td_RAy8-12" vertex="1" connectable="0">
          <mxGeometry x="0.0133" y="-3" relative="1" as="geometry">
            <mxPoint as="offset" />
          </mxGeometry>
        </mxCell>
        <mxCell id="CjrtVeYOu_jG5Td_RAy8-14" value="" style="endArrow=classic;html=1;rounded=0;entryX=1;entryY=0.5;entryDx=0;entryDy=0;exitX=0;exitY=0.5;exitDx=0;exitDy=0;" parent="1" edge="1">
          <mxGeometry width="50" height="50" relative="1" as="geometry">
            <mxPoint x="850" y="439.5" as="sourcePoint" />
            <mxPoint x="740" y="439.5" as="targetPoint" />
            <Array as="points">
              <mxPoint x="780" y="439.5" />
            </Array>
          </mxGeometry>
        </mxCell>
        <mxCell id="CjrtVeYOu_jG5Td_RAy8-15" value="写入" style="text;html=1;align=center;verticalAlign=middle;whiteSpace=wrap;rounded=0;" parent="1" vertex="1">
          <mxGeometry x="500" y="240" width="60" height="30" as="geometry" />
        </mxCell>
        <mxCell id="CjrtVeYOu_jG5Td_RAy8-16" value="查询" style="text;html=1;align=center;verticalAlign=middle;whiteSpace=wrap;rounded=0;" parent="1" vertex="1">
          <mxGeometry x="870" y="240" width="60" height="30" as="geometry" />
        </mxCell>
        <mxCell id="HnPX8z6sEVfjPTiYfANm-1" value="" style="endArrow=classic;html=1;rounded=0;entryX=1;entryY=0.5;entryDx=0;entryDy=0;exitX=0;exitY=0.5;exitDx=0;exitDy=0;" edge="1" parent="1" source="CjrtVeYOu_jG5Td_RAy8-9" target="CjrtVeYOu_jG5Td_RAy8-2">
          <mxGeometry width="50" height="50" relative="1" as="geometry">
            <mxPoint x="830" y="200" as="sourcePoint" />
            <mxPoint x="740" y="200" as="targetPoint" />
            <Array as="points">
              <mxPoint x="770" y="199.5" />
            </Array>
          </mxGeometry>
        </mxCell>
        <mxCell id="HnPX8z6sEVfjPTiYfANm-2" value="Hive" style="shape=cylinder3;whiteSpace=wrap;html=1;boundedLbl=1;backgroundOutline=1;size=15;" vertex="1" parent="1">
          <mxGeometry x="410" y="270" width="60" height="80" as="geometry" />
        </mxCell>
        <mxCell id="HnPX8z6sEVfjPTiYfANm-3" style="edgeStyle=orthogonalEdgeStyle;rounded=0;orthogonalLoop=1;jettySize=auto;html=1;exitX=1;exitY=0;exitDx=0;exitDy=52.5;exitPerimeter=0;entryX=0.25;entryY=1;entryDx=0;entryDy=0;" edge="1" parent="1" source="HnPX8z6sEVfjPTiYfANm-2" target="CjrtVeYOu_jG5Td_RAy8-2">
          <mxGeometry relative="1" as="geometry">
            <mxPoint x="480" y="209.5" as="sourcePoint" />
            <mxPoint x="620" y="209.5" as="targetPoint" />
          </mxGeometry>
        </mxCell>
        <mxCell id="HnPX8z6sEVfjPTiYfANm-4" value="Spark" style="edgeLabel;html=1;align=center;verticalAlign=middle;resizable=0;points=[];" vertex="1" connectable="0" parent="HnPX8z6sEVfjPTiYfANm-3">
          <mxGeometry x="-0.1286" y="2" relative="1" as="geometry">
            <mxPoint x="-44" y="1" as="offset" />
          </mxGeometry>
        </mxCell>
      </root>
    </mxGraphModel>
  </diagram>
</mxfile>
